<mxfile host="app.diagrams.net" modified="2023-04-26T12:07:07.522Z" agent="Mozilla/5.0 (Windows NT 10.0; Win64; x64) AppleWebKit/537.36 (KHTML, like Gecko) Chrome/112.0.0.0 Safari/537.36" etag="TLAkiGZEKuXG38scWWaW" version="21.2.2" type="github">
  <diagram name="Page-1" id="OhzH5o8ZGbFWwSy77O6o">
    <mxGraphModel dx="1434" dy="760" grid="1" gridSize="10" guides="1" tooltips="1" connect="1" arrows="1" fold="1" page="1" pageScale="1" pageWidth="827" pageHeight="1169" math="0" shadow="0">
      <root>
        <mxCell id="0" />
        <mxCell id="1" parent="0" />
        <mxCell id="NP7wJ7r--iwGBcWNn7Id-1" value="&lt;div style=&quot;&quot;&gt;DRAM&lt;/div&gt;" style="rounded=0;whiteSpace=wrap;html=1;align=center;labelPosition=center;verticalLabelPosition=top;verticalAlign=bottom;" vertex="1" parent="1">
          <mxGeometry x="170" y="210" width="170" height="260" as="geometry" />
        </mxCell>
        <mxCell id="NP7wJ7r--iwGBcWNn7Id-2" value="PM" style="rounded=0;whiteSpace=wrap;html=1;labelPosition=center;verticalLabelPosition=top;align=center;verticalAlign=bottom;" vertex="1" parent="1">
          <mxGeometry x="350" y="210" width="170" height="260" as="geometry" />
        </mxCell>
        <mxCell id="NP7wJ7r--iwGBcWNn7Id-3" value="Transaction" style="rounded=0;whiteSpace=wrap;html=1;" vertex="1" parent="1">
          <mxGeometry x="200" y="240" width="110" height="50" as="geometry" />
        </mxCell>
        <mxCell id="NP7wJ7r--iwGBcWNn7Id-4" value="Page Cache" style="rounded=0;whiteSpace=wrap;html=1;" vertex="1" parent="1">
          <mxGeometry x="200" y="390" width="110" height="50" as="geometry" />
        </mxCell>
        <mxCell id="NP7wJ7r--iwGBcWNn7Id-5" value="Index" style="rounded=0;whiteSpace=wrap;html=1;" vertex="1" parent="1">
          <mxGeometry x="200" y="315" width="110" height="50" as="geometry" />
        </mxCell>
        <mxCell id="NP7wJ7r--iwGBcWNn7Id-6" value="Log" style="rounded=0;whiteSpace=wrap;html=1;" vertex="1" parent="1">
          <mxGeometry x="370" y="265" width="110" height="50" as="geometry" />
        </mxCell>
        <mxCell id="NP7wJ7r--iwGBcWNn7Id-7" value="SnapShot Pages" style="rounded=0;whiteSpace=wrap;html=1;" vertex="1" parent="1">
          <mxGeometry x="370" y="365" width="110" height="50" as="geometry" />
        </mxCell>
      </root>
    </mxGraphModel>
  </diagram>
</mxfile>
